HIERARCHY
ROOT hip
{
  OFFSET 0 0 0
  CHANNELS 6 Xposition Yposition Zposition Zrotation Yrotation Xrotation
  JOINT abdomen
  {
    OFFSET 0 20.6881 -0.73152
    CHANNELS 3 Zrotation Xrotation Yrotation
    JOINT chest
    {
      OFFSET 0 11.7043 -0.48768
      CHANNELS 3 Zrotation Xrotation Yrotation
      JOINT neck
      {
        OFFSET 0 22.1894 -2.19456
        CHANNELS 3 Zrotation Xrotation Yrotation
        JOINT head
        {
          OFFSET -0.24384 7.07133 1.2192
          CHANNELS 3 Zrotation Xrotation Yrotation
          JOINT leftEye
          {
            OFFSET 4.14528 8.04674 8.04672
            CHANNELS 3 Zrotation Xrotation Yrotation
            End Site
            {
              OFFSET 1 0 0
            }
          }
          JOINT rightEye
          {
            OFFSET -3.6576 8.04674 8.04672
            CHANNELS 3 Zrotation Xrotation Yrotation
            End Site
            {
              OFFSET 1 0 0
            }
          }
        }
      }
      JOINT rCollar
      {
        OFFSET -2.68224 19.2634 -4.8768
        CHANNELS 3 Zrotation Xrotation Yrotation
        JOINT rShldr
        {
          OFFSET -8.77824 -1.95073 1.46304
          CHANNELS 3 Zrotation Xrotation Yrotation
          JOINT rForeArm
          {
            OFFSET -28.1742 -1.7115 0.48768
            CHANNELS 3 Zrotation Xrotation Yrotation
            JOINT rHand
            {
              OFFSET -22.5879 0.773209 7.07136
              CHANNELS 3 Zrotation Xrotation Yrotation
              JOINT rThumb1
              {
                OFFSET -1.2192 -0.487915 3.41376
                CHANNELS 3 Zrotation Xrotation Yrotation
                JOINT rThumb2
                {
                  OFFSET -3.37035 -0.52449 3.41376
                  CHANNELS 3 Zrotation Xrotation Yrotation
                  End Site
                  {
                    OFFSET -1.78271 -1.18214 1.43049
                  }
                }
              }
              JOINT rIndex1
              {
                OFFSET -7.75947 0.938293 5.60832
                CHANNELS 3 Zrotation Xrotation Yrotation
                JOINT rIndex2
                {
                  OFFSET -2.54057 -0.884171 1.56538
                  CHANNELS 3 Zrotation Xrotation Yrotation
                  End Site
                  {
                    OFFSET -1.62519 -0.234802 1.16502
                  }
                }
              }
              JOINT rMid1
              {
                OFFSET -8.24714 1.18213 3.41376
                CHANNELS 3 Zrotation Xrotation Yrotation
                JOINT rMid2
                {
                  OFFSET -3.10165 -0.590103 1.0647
                  CHANNELS 3 Zrotation Xrotation Yrotation
                  End Site
                  {
                    OFFSET -2.48547 -0.328903 0.83742
                  }
                }
              }
              JOINT rRing1
              {
                OFFSET -8.82822 0.546677 1.51678
                CHANNELS 3 Zrotation Xrotation Yrotation
                JOINT rRing2
                {
                  OFFSET -2.60934 -0.819778 -0.0198488
                  CHANNELS 3 Zrotation Xrotation Yrotation
                  End Site
                  {
                    OFFSET -2.33842 -0.294052 0.168128
                  }
                }
              }
              JOINT rPinky1
              {
                OFFSET -8.27202 -0.0477905 -0.4584
                CHANNELS 3 Zrotation Xrotation Yrotation
                JOINT rPinky2
                {
                  OFFSET -1.82734 -0.647385 -0.700984
                  CHANNELS 3 Zrotation Xrotation Yrotation
                  End Site
                  {
                    OFFSET -1.69225 -0.51767 -0.607171
                  }
                }
              }
            }
          }
        }
      }
      JOINT lCollar
      {
        OFFSET 2.68224 19.2634 -4.8768
        CHANNELS 3 Zrotation Xrotation Yrotation
        JOINT lShldr
        {
          OFFSET 8.77824 -1.95073 1.46304
          CHANNELS 3 Zrotation Xrotation Yrotation
          JOINT lForeArm
          {
            OFFSET 28.1742 -1.7115 0.48768
            CHANNELS 3 Zrotation Xrotation Yrotation
            JOINT lHand
            {
              OFFSET 22.5879 0.773209 7.07136
              CHANNELS 3 Zrotation Xrotation Yrotation
              JOINT lThumb1
              {
                OFFSET 1.2192 -0.487915 3.41376
                CHANNELS 3 Zrotation Xrotation Yrotation
                JOINT lThumb2
                {
                  OFFSET 3.37035 -0.52449 3.41376
                  CHANNELS 3 Zrotation Xrotation Yrotation
                  End Site
                  {
                    OFFSET 1.78271 -1.18214 1.43049
                  }
                }
              }
              JOINT lIndex1
              {
                OFFSET 7.75947 0.938293 5.60832
                CHANNELS 3 Zrotation Xrotation Yrotation
                JOINT lIndex2
                {
                  OFFSET 2.54057 -0.884171 1.56538
                  CHANNELS 3 Zrotation Xrotation Yrotation
                  End Site
                  {
                    OFFSET 1.62519 -0.234802 1.16502
                  }
                }
              }
              JOINT lMid1
              {
                OFFSET 8.24714 1.18213 3.41376
                CHANNELS 3 Zrotation Xrotation Yrotation
                JOINT lMid2
                {
                  OFFSET 3.10165 -0.590103 1.0647
                  CHANNELS 3 Zrotation Xrotation Yrotation
                  End Site
                  {
                    OFFSET 2.48547 -0.328903 0.83742
                  }
                }
              }
              JOINT lRing1
              {
                OFFSET 8.82822 0.546677 1.51678
                CHANNELS 3 Zrotation Xrotation Yrotation
                JOINT lRing2
                {
                  OFFSET 2.60934 -0.819778 -0.0198488
                  CHANNELS 3 Zrotation Xrotation Yrotation
                  End Site
                  {
                    OFFSET 2.33842 -0.294052 0.168128
                  }
                }
              }
              JOINT lPinky1
              {
                OFFSET 8.27202 -0.0477905 -0.4584
                CHANNELS 3 Zrotation Xrotation Yrotation
                JOINT lPinky2
                {
                  OFFSET 1.82734 -0.647385 -0.700984
                  CHANNELS 3 Zrotation Xrotation Yrotation
                  End Site
                  {
                    OFFSET 1.69225 -0.51767 -0.607171
                  }
                }
              }
            }
          }
        }
      }
    }
  }
  JOINT rButtock
  {
    OFFSET -8.77824 4.35084 1.2192
    CHANNELS 3 Zrotation Xrotation Yrotation
    JOINT rThigh
    {
      OFFSET 0 -1.70687 -2.19456
      CHANNELS 3 Zrotation Xrotation Yrotation
      JOINT rShin
      {
        OFFSET 0 -36.8199 0.73152
        CHANNELS 3 Zrotation Xrotation Yrotation
        JOINT rFoot
        {
          OFFSET 0.73152 -45.1104 -5.12064
          CHANNELS 3 Zrotation Xrotation Yrotation
          End Site
          {
            OFFSET -1.1221 -3.69964 12.103
          }
        }
      }
    }
  }
  JOINT lButtock
  {
    OFFSET 8.77824 4.35084 1.2192
    CHANNELS 3 Zrotation Xrotation Yrotation
    JOINT lThigh
    {
      OFFSET 0 -1.70687 -2.19456
      CHANNELS 3 Zrotation Xrotation Yrotation
      JOINT lShin
      {
        OFFSET 0 -36.8199 0.73152
        CHANNELS 3 Zrotation Xrotation Yrotation
        JOINT lFoot
        {
          OFFSET -0.73152 -45.1104 -5.12064
          CHANNELS 3 Zrotation Xrotation Yrotation
          End Site
          {
            OFFSET 1.1221 -3.69964 12.103
          }
        }
      }
    }
  }
}
MOTION
Frames:	4
Frame Time:	0.00833333
50.7309 85.5269 252.799 0.0 0.0 0.0 2.34101 -0.00222417 0.0637214 0.646596 0.00594985 0.111938 -2.91269e-14 -2.38542e-15 -9.93922e-17 -8.65894e-14 3.18055e-15 -2.51587e-16 -0.0 0.0 0.0 -0.0 0.0 0.0 -1.42142e-14 1.22882e-16 1.49089e-16 -3.01921e-13 2.72087e-15 -7.95139e-16 -5.24886e-12 1.66303e-12 6.36111e-14 -6.00663e-11 -1.08208e-12 -2.76708e-13 -1.41685e-10 1.26151e-12 -4.29375e-13 -2.44683e-10 2.1755e-12 -7.4743e-13 -1.41681e-10 1.26228e-12 -4.35736e-13 7.73091 5.47488 0.417314 -1.41685e-10 1.26149e-12 -4.32555e-13 2.90554 0.965183 0.102902 -1.41679e-10 1.26159e-12 -4.36531e-13 10.2786 0.731801 0.0259123 -1.41689e-10 1.26348e-12 -4.35736e-13 2.22167 -0.733487 -0.20892 -1.4213e-14 1.2987e-16 -2.48481e-16 -3.07334e-13 2.90101e-15 -2.5842e-15 -5.24926e-12 -1.47876e-12 9.54166e-15 -6.00696e-11 2.06184e-12 -2.16278e-13 -1.41691e-10 1.2644e-12 -4.45278e-13 -2.44689e-10 2.18186e-12 -7.38684e-13 -1.41695e-10 1.26546e-12 -4.32555e-13 -7.73091 5.47488 -0.417314 -1.41692e-10 1.26457e-12 -4.35736e-13 -2.90554 0.965183 -0.102902 -1.41699e-10 1.26467e-12 -4.34146e-13 -10.2786 0.731801 -0.0259123 -1.41687e-10 1.26705e-12 -4.38917e-13 -2.22167 -0.733487 0.20892 -2.03217e-16 0.0 -3.88251e-19 2.21551 -8.02973 -0.231361 0.00607154 8.97368 0.15207 -0.477717 -0.951455 0.034867 2.03217e-16 0.0 3.88251e-19 1.35209 -1.92788 -0.00535844 0.00846634 -2.07867 0.069458 0.423833 3.99897 -0.127285
49.8461 84.0459 241.01 -179.051 -16.3462 -178.956 3.07931 0.215815 1.8982 0.180263 -1.97719 0.624689 1.49494 4.18828 4.71593 -3.30814 -8.12697 8.65886 -0.0 0.0 0.0 -0.0 0.0 0.0 -3.41783e-14 6.49441e-15 -1.13443e-13 22.0892 14.9374 -2.5591 -4.78133 -2.29734 7.3276 0.0540051 5.15905 0.714484 -3.58349e-10 -4.9247e-10 6.18396e-11 -6.18099e-10 -8.57643e-10 1.11973e-10 -3.58343e-10 -4.9247e-10 6.18333e-11 7.73091 5.47488 0.417314 -3.58348e-10 -4.92471e-10 6.18372e-11 2.90554 0.965183 0.102902 -3.58342e-10 -4.92471e-10 6.18352e-11 10.2786 0.731801 0.0259123 -3.58352e-10 -4.92468e-10 6.18377e-11 2.22167 -0.733487 -0.20892 -3.41795e-14 6.49834e-15 -1.13775e-13 -21.9815 9.76561 1.61142 5.10251 -2.5263 -7.73106 -0.035766 4.19818 -0.584313 5.75816e-10 9.30144e-10 3.74964e-11 9.95584e-10 1.60679e-09 5.53189e-11 5.75811e-10 9.30146e-10 3.75101e-11 -7.73091 5.47488 -0.417314 5.75817e-10 9.30145e-10 3.75006e-11 -2.90554 0.965183 -0.102902 5.7581e-10 9.30145e-10 3.75032e-11 -10.2786 0.731801 -0.0259123 5.75821e-10 9.30147e-10 3.74982e-11 -2.22167 -0.733487 0.20892 -2.03217e-16 0.0 -3.88251e-19 4.56584 -8.58931 4.40808 0.0458867 14.9042 0.309886 -2.31736 -6.66064 -9.73479 2.03217e-16 0.0 3.88251e-19 0.0249102 -4.88523 -6.98262 -0.0327476 6.31318 -0.124237 0.989474 -2.25298 3.83995
49.8224 84.047 240.978 -179.06 -16.2934 -178.99 3.84589 0.444242 3.83973 -0.273946 -4.07347 1.1695 2.31909 8.52087 9.78468 -4.07763 -16.0934 18.3779 -0.0 0.0 0.0 -0.0 0.0 0.0 -5.71336e-14 1.38207e-14 -2.40203e-13 47.1028 30.6211 -5.91407 -9.20069 -4.5993 15.1087 -0.0310561 10.6167 1.49022 -6.10316e-10 -1.04019e-09 1.31462e-10 -1.05243e-09 -1.81164e-09 2.38115e-10 -6.10309e-10 -1.04019e-09 1.31456e-10 7.73091 5.47488 0.417314 -6.10316e-10 -1.04019e-09 1.3146e-10 2.90554 0.965183 0.102902 -6.1031e-10 -1.04019e-09 1.31461e-10 10.2786 0.731801 0.0259123 -6.10321e-10 -1.04019e-09 1.31465e-10 2.22167 -0.733487 -0.20892 -5.71341e-14 1.38214e-14 -2.40467e-13 -45.8509 20.0567 3.47628 9.75989 -5.04164 -15.948 0.0205627 8.64584 -1.21409 1.37594e-09 1.96601e-09 7.91344e-11 2.37868e-09 3.39623e-09 1.16628e-10 1.37594e-09 1.96602e-09 7.91493e-11 -7.73091 5.47488 -0.417314 1.37595e-09 1.96602e-09 7.91328e-11 -2.90554 0.965183 -0.102902 1.37594e-09 1.96602e-09 7.91366e-11 -10.2786 0.731801 -0.0259123 1.37595e-09 1.96602e-09 7.91312e-11 -2.22167 -0.733487 0.20892 -2.03217e-16 0.0 -3.88251e-19 7.15093 -9.11294 9.33172 0.0496688 21.172 0.490266 -6.37728 -12.1085 -20.4014 2.03217e-16 0.0 3.88251e-19 -2.15899 -7.83567 -14.4441 -0.0129795 15.1856 -0.339297 2.53538 -8.78504 8.12588
49.8277 84.0309 241.122 -178.983 -15.5514 -178.712 4.51409 0.649171 5.56746 -0.645423 -5.94136 1.65798 2.39947 12.221 14.4441 -2.35973 -22.0793 27.9183 -0.0 0.0 0.0 -0.0 0.0 0.0 -7.41065e-14 1.92375e-14 -3.40626e-13 71.6069 44.3798 -10.4066 -12.6199 -6.44209 22.1119 -0.236231 15.4673 2.21503 -7.91675e-10 -1.47993e-09 1.86378e-10 -1.36493e-09 -2.57728e-09 3.37413e-10 -7.91667e-10 -1.47993e-09 1.86371e-10 7.73091 5.47488 0.417314 -7.91675e-10 -1.47994e-09 1.86377e-10 2.90554 0.965183 0.102902 -7.9167e-10 -1.47994e-09 1.86379e-10 10.2786 0.731801 0.0259123 -7.9168e-10 -1.47993e-09 1.86385e-10 2.22167 -0.733487 -0.20892 -7.41125e-14 1.92353e-14 -3.40827e-13 -67.7939 29.1971 5.45956 13.3115 -7.02814 -23.3563 0.154927 12.5892 -1.79132 2.01083e-09 2.7879e-09 1.1338e-10 3.47613e-09 4.81601e-09 1.67434e-10 2.01082e-09 2.78791e-09 1.13395e-10 -7.73091 5.47488 -0.417314 2.01083e-09 2.78791e-09 1.13373e-10 -2.90554 0.965183 -0.102902 2.01083e-09 2.78791e-09 1.13378e-10 -10.2786 0.731801 -0.0259123 2.01084e-09 2.78791e-09 1.13372e-10 -2.22167 -0.733487 0.20892 -2.03217e-16 0.0 -3.88251e-19 9.53381 -9.50941 13.7261 0.0155934 26.7643 0.669714 -11.7416 -15.9866 -30.3649 2.03217e-16 0.0 3.88251e-19 -4.76317 -10.1859 -21.2107 0.0660667 23.096 -0.553652 4.76254 -14.4549 12.1553
